<mxfile host="Electron" modified="2024-05-10T16:17:56.663Z" agent="Mozilla/5.0 (Windows NT 10.0; Win64; x64) AppleWebKit/537.36 (KHTML, like Gecko) draw.io/24.2.5 Chrome/120.0.6099.109 Electron/28.1.0 Safari/537.36" etag="z9rGPXAqpnnLdAvDZQK-" version="24.2.5" type="device">
  <diagram name="Page-1" id="099fd60b-425b-db50-ffb0-6b813814b670">
    <mxGraphModel dx="1240" dy="733" grid="1" gridSize="10" guides="1" tooltips="1" connect="1" arrows="1" fold="1" page="1" pageScale="1" pageWidth="850" pageHeight="1100" background="none" math="0" shadow="0">
      <root>
        <mxCell id="0" />
        <mxCell id="1" parent="0" />
        <mxCell id="1dd3ca9b2b35b949-1" value="" style="whiteSpace=wrap;html=1;rounded=0;shadow=0;comic=0;labelBackgroundColor=none;strokeWidth=1;fontFamily=Verdana;fontSize=12;align=center;" parent="1" vertex="1">
          <mxGeometry x="726.3399999999999" y="80" width="239.5" height="820" as="geometry" />
        </mxCell>
        <mxCell id="10ed09ecd0ef054a-2" value="80x40" style="shape=rect;dashed=0;shadow=0;html=1;whiteSpace=wrap;rotation=270;rounded=0;comic=0;labelBackgroundColor=none;strokeWidth=1;fontFamily=Verdana;fontSize=12;align=center;" parent="1" vertex="1">
          <mxGeometry x="340" y="473.61" width="810.2" height="35.5" as="geometry" />
        </mxCell>
        <mxCell id="10ed09ecd0ef054a-3" value="80x40" style="shape=rect;dashed=0;shadow=0;html=1;whiteSpace=wrap;rotation=270;rounded=0;comic=0;labelBackgroundColor=none;strokeWidth=1;fontFamily=Verdana;fontSize=12;align=center;" parent="1" vertex="1">
          <mxGeometry x="541.08" y="474.69000000000005" width="814.13" height="33.38" as="geometry" />
        </mxCell>
        <mxCell id="_gaNA8L7GJSep_8MpRXc-3" value="VB" style="ellipse;whiteSpace=wrap;html=1;aspect=fixed;" vertex="1" parent="1">
          <mxGeometry x="730.0999999999999" y="90" width="30" height="30" as="geometry" />
        </mxCell>
        <mxCell id="_gaNA8L7GJSep_8MpRXc-9" value="C13" style="ellipse;whiteSpace=wrap;html=1;aspect=fixed;" vertex="1" parent="1">
          <mxGeometry x="730.0999999999999" y="130" width="30" height="30" as="geometry" />
        </mxCell>
        <mxCell id="_gaNA8L7GJSep_8MpRXc-10" value="C14" style="ellipse;whiteSpace=wrap;html=1;aspect=fixed;" vertex="1" parent="1">
          <mxGeometry x="730.0999999999999" y="170" width="30" height="30" as="geometry" />
        </mxCell>
        <mxCell id="_gaNA8L7GJSep_8MpRXc-11" value="C15" style="ellipse;whiteSpace=wrap;html=1;aspect=fixed;" vertex="1" parent="1">
          <mxGeometry x="730.0999999999999" y="210" width="30" height="30" as="geometry" />
        </mxCell>
        <mxCell id="_gaNA8L7GJSep_8MpRXc-12" value="R" style="ellipse;whiteSpace=wrap;html=1;aspect=fixed;" vertex="1" parent="1">
          <mxGeometry x="730.0999999999999" y="250" width="30" height="30" as="geometry" />
        </mxCell>
        <mxCell id="_gaNA8L7GJSep_8MpRXc-13" value="A0" style="ellipse;whiteSpace=wrap;html=1;aspect=fixed;" vertex="1" parent="1">
          <mxGeometry x="730.0999999999999" y="290" width="30" height="30" as="geometry" />
        </mxCell>
        <mxCell id="_gaNA8L7GJSep_8MpRXc-14" value="A1" style="ellipse;whiteSpace=wrap;html=1;aspect=fixed;" vertex="1" parent="1">
          <mxGeometry x="730.0999999999999" y="330" width="30" height="30" as="geometry" />
        </mxCell>
        <mxCell id="_gaNA8L7GJSep_8MpRXc-15" value="A2" style="ellipse;whiteSpace=wrap;html=1;aspect=fixed;" vertex="1" parent="1">
          <mxGeometry x="730.0999999999999" y="370" width="30" height="30" as="geometry" />
        </mxCell>
        <mxCell id="_gaNA8L7GJSep_8MpRXc-16" value="A3" style="ellipse;whiteSpace=wrap;html=1;aspect=fixed;" vertex="1" parent="1">
          <mxGeometry x="730.0999999999999" y="410" width="30" height="30" as="geometry" />
        </mxCell>
        <mxCell id="_gaNA8L7GJSep_8MpRXc-17" value="A4" style="ellipse;whiteSpace=wrap;html=1;aspect=fixed;" vertex="1" parent="1">
          <mxGeometry x="730.0999999999999" y="450" width="30" height="30" as="geometry" />
        </mxCell>
        <mxCell id="_gaNA8L7GJSep_8MpRXc-18" value="A5" style="ellipse;whiteSpace=wrap;html=1;aspect=fixed;" vertex="1" parent="1">
          <mxGeometry x="730.0999999999999" y="490" width="30" height="30" as="geometry" />
        </mxCell>
        <mxCell id="_gaNA8L7GJSep_8MpRXc-19" value="A6" style="ellipse;whiteSpace=wrap;html=1;aspect=fixed;" vertex="1" parent="1">
          <mxGeometry x="730.0999999999999" y="530" width="30" height="30" as="geometry" />
        </mxCell>
        <mxCell id="_gaNA8L7GJSep_8MpRXc-20" value="A7" style="ellipse;whiteSpace=wrap;html=1;aspect=fixed;" vertex="1" parent="1">
          <mxGeometry x="730.0999999999999" y="570" width="30" height="30" as="geometry" />
        </mxCell>
        <mxCell id="_gaNA8L7GJSep_8MpRXc-21" value="B0" style="ellipse;whiteSpace=wrap;html=1;aspect=fixed;" vertex="1" parent="1">
          <mxGeometry x="730.0999999999999" y="610" width="30" height="30" as="geometry" />
        </mxCell>
        <mxCell id="_gaNA8L7GJSep_8MpRXc-22" value="B1" style="ellipse;whiteSpace=wrap;html=1;aspect=fixed;" vertex="1" parent="1">
          <mxGeometry x="730.0999999999999" y="650" width="30" height="30" as="geometry" />
        </mxCell>
        <mxCell id="_gaNA8L7GJSep_8MpRXc-23" value="B2" style="ellipse;whiteSpace=wrap;html=1;aspect=fixed;" vertex="1" parent="1">
          <mxGeometry x="730.0999999999999" y="690" width="30" height="30" as="geometry" />
        </mxCell>
        <mxCell id="_gaNA8L7GJSep_8MpRXc-24" value="B10" style="ellipse;whiteSpace=wrap;html=1;aspect=fixed;" vertex="1" parent="1">
          <mxGeometry x="730.0999999999999" y="730" width="30" height="30" as="geometry" />
        </mxCell>
        <mxCell id="_gaNA8L7GJSep_8MpRXc-25" value="3V" style="ellipse;whiteSpace=wrap;html=1;aspect=fixed;" vertex="1" parent="1">
          <mxGeometry x="730.0999999999999" y="770" width="30" height="30" as="geometry" />
        </mxCell>
        <mxCell id="_gaNA8L7GJSep_8MpRXc-26" value="G" style="ellipse;whiteSpace=wrap;html=1;aspect=fixed;" vertex="1" parent="1">
          <mxGeometry x="730.0999999999999" y="810" width="30" height="30" as="geometry" />
        </mxCell>
        <mxCell id="_gaNA8L7GJSep_8MpRXc-27" value="5V" style="ellipse;whiteSpace=wrap;html=1;aspect=fixed;" vertex="1" parent="1">
          <mxGeometry x="730.0999999999999" y="850" width="30" height="30" as="geometry" />
        </mxCell>
        <mxCell id="_gaNA8L7GJSep_8MpRXc-32" value="3V3" style="ellipse;whiteSpace=wrap;html=1;aspect=fixed;" vertex="1" parent="1">
          <mxGeometry x="933.15" y="90" width="30" height="30" as="geometry" />
        </mxCell>
        <mxCell id="_gaNA8L7GJSep_8MpRXc-33" value="G" style="ellipse;whiteSpace=wrap;html=1;aspect=fixed;" vertex="1" parent="1">
          <mxGeometry x="933.14" y="130" width="30" height="30" as="geometry" />
        </mxCell>
        <mxCell id="_gaNA8L7GJSep_8MpRXc-34" value="5V" style="ellipse;whiteSpace=wrap;html=1;aspect=fixed;" vertex="1" parent="1">
          <mxGeometry x="933.15" y="170" width="30" height="30" as="geometry" />
        </mxCell>
        <mxCell id="_gaNA8L7GJSep_8MpRXc-35" value="B9" style="ellipse;whiteSpace=wrap;html=1;aspect=fixed;" vertex="1" parent="1">
          <mxGeometry x="933.15" y="210" width="30" height="30" as="geometry" />
        </mxCell>
        <mxCell id="_gaNA8L7GJSep_8MpRXc-36" value="B8" style="ellipse;whiteSpace=wrap;html=1;aspect=fixed;" vertex="1" parent="1">
          <mxGeometry x="933.15" y="250" width="30" height="30" as="geometry" />
        </mxCell>
        <mxCell id="_gaNA8L7GJSep_8MpRXc-37" value="B7" style="ellipse;whiteSpace=wrap;html=1;aspect=fixed;" vertex="1" parent="1">
          <mxGeometry x="933.15" y="290" width="30" height="30" as="geometry" />
        </mxCell>
        <mxCell id="_gaNA8L7GJSep_8MpRXc-38" value="B6" style="ellipse;whiteSpace=wrap;html=1;aspect=fixed;" vertex="1" parent="1">
          <mxGeometry x="933.15" y="330" width="30" height="30" as="geometry" />
        </mxCell>
        <mxCell id="_gaNA8L7GJSep_8MpRXc-39" value="B5" style="ellipse;whiteSpace=wrap;html=1;aspect=fixed;" vertex="1" parent="1">
          <mxGeometry x="933.15" y="370" width="30" height="30" as="geometry" />
        </mxCell>
        <mxCell id="_gaNA8L7GJSep_8MpRXc-40" value="B4" style="ellipse;whiteSpace=wrap;html=1;aspect=fixed;" vertex="1" parent="1">
          <mxGeometry x="933.15" y="410" width="30" height="30" as="geometry" />
        </mxCell>
        <mxCell id="_gaNA8L7GJSep_8MpRXc-41" value="B3" style="ellipse;whiteSpace=wrap;html=1;aspect=fixed;" vertex="1" parent="1">
          <mxGeometry x="933.15" y="450" width="30" height="30" as="geometry" />
        </mxCell>
        <mxCell id="_gaNA8L7GJSep_8MpRXc-42" value="A15" style="ellipse;whiteSpace=wrap;html=1;aspect=fixed;" vertex="1" parent="1">
          <mxGeometry x="933.15" y="490" width="30" height="30" as="geometry" />
        </mxCell>
        <mxCell id="_gaNA8L7GJSep_8MpRXc-43" value="A12" style="ellipse;whiteSpace=wrap;html=1;aspect=fixed;" vertex="1" parent="1">
          <mxGeometry x="933.15" y="530" width="30" height="30" as="geometry" />
        </mxCell>
        <mxCell id="_gaNA8L7GJSep_8MpRXc-44" value="A11" style="ellipse;whiteSpace=wrap;html=1;aspect=fixed;" vertex="1" parent="1">
          <mxGeometry x="933.15" y="570" width="30" height="30" as="geometry" />
        </mxCell>
        <mxCell id="_gaNA8L7GJSep_8MpRXc-45" value="A10" style="ellipse;whiteSpace=wrap;html=1;aspect=fixed;" vertex="1" parent="1">
          <mxGeometry x="933.15" y="610" width="30" height="30" as="geometry" />
        </mxCell>
        <mxCell id="_gaNA8L7GJSep_8MpRXc-46" value="A9" style="ellipse;whiteSpace=wrap;html=1;aspect=fixed;" vertex="1" parent="1">
          <mxGeometry x="933.15" y="650" width="30" height="30" as="geometry" />
        </mxCell>
        <mxCell id="_gaNA8L7GJSep_8MpRXc-47" value="A8" style="ellipse;whiteSpace=wrap;html=1;aspect=fixed;" vertex="1" parent="1">
          <mxGeometry x="933.15" y="690" width="30" height="30" as="geometry" />
        </mxCell>
        <mxCell id="_gaNA8L7GJSep_8MpRXc-48" value="B15" style="ellipse;whiteSpace=wrap;html=1;aspect=fixed;" vertex="1" parent="1">
          <mxGeometry x="933.15" y="730" width="30" height="30" as="geometry" />
        </mxCell>
        <mxCell id="_gaNA8L7GJSep_8MpRXc-49" value="B14" style="ellipse;whiteSpace=wrap;html=1;aspect=fixed;" vertex="1" parent="1">
          <mxGeometry x="933.15" y="770" width="30" height="30" as="geometry" />
        </mxCell>
        <mxCell id="_gaNA8L7GJSep_8MpRXc-50" value="B13" style="ellipse;whiteSpace=wrap;html=1;aspect=fixed;" vertex="1" parent="1">
          <mxGeometry x="933.15" y="810" width="30" height="30" as="geometry" />
        </mxCell>
        <mxCell id="_gaNA8L7GJSep_8MpRXc-51" value="B12" style="ellipse;whiteSpace=wrap;html=1;aspect=fixed;" vertex="1" parent="1">
          <mxGeometry x="933.15" y="850" width="30" height="30" as="geometry" />
        </mxCell>
        <mxCell id="_gaNA8L7GJSep_8MpRXc-55" value="HC-SR04" style="rounded=1;whiteSpace=wrap;html=1;" vertex="1" parent="1">
          <mxGeometry x="1250" y="55" width="80" height="20" as="geometry" />
        </mxCell>
        <mxCell id="_gaNA8L7GJSep_8MpRXc-56" value="1" style="rounded=0;whiteSpace=wrap;html=1;" vertex="1" parent="1">
          <mxGeometry x="1255" y="145" width="10" height="45" as="geometry" />
        </mxCell>
        <mxCell id="_gaNA8L7GJSep_8MpRXc-62" value="2" style="rounded=0;whiteSpace=wrap;html=1;" vertex="1" parent="1">
          <mxGeometry x="1275" y="145" width="10" height="45" as="geometry" />
        </mxCell>
        <mxCell id="_gaNA8L7GJSep_8MpRXc-63" value="3" style="rounded=0;whiteSpace=wrap;html=1;" vertex="1" parent="1">
          <mxGeometry x="1295" y="145" width="10" height="45" as="geometry" />
        </mxCell>
        <mxCell id="_gaNA8L7GJSep_8MpRXc-64" value="4" style="rounded=0;whiteSpace=wrap;html=1;" vertex="1" parent="1">
          <mxGeometry x="1315" y="145" width="10" height="45" as="geometry" />
        </mxCell>
        <mxCell id="_gaNA8L7GJSep_8MpRXc-54" value="" style="rounded=0;whiteSpace=wrap;html=1;" vertex="1" parent="1">
          <mxGeometry x="1230" y="85" width="120" height="60" as="geometry" />
        </mxCell>
        <mxCell id="_gaNA8L7GJSep_8MpRXc-53" value="" style="ellipse;whiteSpace=wrap;html=1;aspect=fixed;" vertex="1" parent="1">
          <mxGeometry x="1300" y="75" width="80" height="80" as="geometry" />
        </mxCell>
        <mxCell id="_gaNA8L7GJSep_8MpRXc-52" value="" style="ellipse;whiteSpace=wrap;html=1;aspect=fixed;" vertex="1" parent="1">
          <mxGeometry x="1200" y="75" width="80" height="80" as="geometry" />
        </mxCell>
        <mxCell id="_gaNA8L7GJSep_8MpRXc-66" value="&lt;div style=&quot;text-align: justify;&quot;&gt;&lt;span style=&quot;background-color: initial;&quot;&gt;Chú thích&lt;/span&gt;&lt;/div&gt;&lt;div style=&quot;text-align: justify;&quot;&gt;1: VCC&lt;/div&gt;&lt;div style=&quot;text-align: justify;&quot;&gt;2: Trig&lt;/div&gt;&lt;div style=&quot;text-align: justify;&quot;&gt;3: Echo&lt;/div&gt;&lt;div style=&quot;text-align: justify;&quot;&gt;4: GND&lt;/div&gt;" style="rounded=0;whiteSpace=wrap;html=1;align=left;" vertex="1" parent="1">
          <mxGeometry x="1400" y="40" width="60" height="75" as="geometry" />
        </mxCell>
        <mxCell id="_gaNA8L7GJSep_8MpRXc-68" value="" style="rounded=0;whiteSpace=wrap;html=1;" vertex="1" parent="1">
          <mxGeometry x="1200" y="420" width="210" height="162.65" as="geometry" />
        </mxCell>
        <mxCell id="_gaNA8L7GJSep_8MpRXc-67" value="TFT-ROUND 1.28&lt;div&gt;240 x 240&lt;/div&gt;" style="ellipse;whiteSpace=wrap;html=1;aspect=fixed;" vertex="1" parent="1">
          <mxGeometry x="1167.5" y="265" width="265" height="265" as="geometry" />
        </mxCell>
        <mxCell id="_gaNA8L7GJSep_8MpRXc-71" value="RST" style="ellipse;whiteSpace=wrap;html=1;aspect=fixed;" vertex="1" parent="1">
          <mxGeometry x="1200" y="552.65" width="30" height="30" as="geometry" />
        </mxCell>
        <mxCell id="_gaNA8L7GJSep_8MpRXc-80" value="CS" style="ellipse;whiteSpace=wrap;html=1;aspect=fixed;" vertex="1" parent="1">
          <mxGeometry x="1230" y="552.65" width="30" height="30" as="geometry" />
        </mxCell>
        <mxCell id="_gaNA8L7GJSep_8MpRXc-81" value="DC" style="ellipse;whiteSpace=wrap;html=1;aspect=fixed;" vertex="1" parent="1">
          <mxGeometry x="1260" y="552.65" width="30" height="30" as="geometry" />
        </mxCell>
        <mxCell id="_gaNA8L7GJSep_8MpRXc-82" value="SDA" style="ellipse;whiteSpace=wrap;html=1;aspect=fixed;" vertex="1" parent="1">
          <mxGeometry x="1290" y="552.65" width="30" height="30" as="geometry" />
        </mxCell>
        <mxCell id="_gaNA8L7GJSep_8MpRXc-83" value="SCL" style="ellipse;whiteSpace=wrap;html=1;aspect=fixed;" vertex="1" parent="1">
          <mxGeometry x="1320" y="552.65" width="30" height="30" as="geometry" />
        </mxCell>
        <mxCell id="_gaNA8L7GJSep_8MpRXc-84" value="GND" style="ellipse;whiteSpace=wrap;html=1;aspect=fixed;" vertex="1" parent="1">
          <mxGeometry x="1350" y="552.65" width="30" height="30" as="geometry" />
        </mxCell>
        <mxCell id="_gaNA8L7GJSep_8MpRXc-85" value="VCC" style="ellipse;whiteSpace=wrap;html=1;aspect=fixed;" vertex="1" parent="1">
          <mxGeometry x="1380" y="552.65" width="30" height="30" as="geometry" />
        </mxCell>
        <mxCell id="_gaNA8L7GJSep_8MpRXc-86" value="RST: Reset&lt;div&gt;CS: Chip Select&lt;/div&gt;&lt;div&gt;DC: Data/Command&lt;/div&gt;&lt;div&gt;SDA: SPI MOSI&lt;/div&gt;&lt;div&gt;SCL: SPI SCK&lt;/div&gt;&lt;div&gt;GND: Ground&lt;/div&gt;&lt;div&gt;VCC: 3.3 to 5v Power&lt;/div&gt;" style="rounded=0;whiteSpace=wrap;html=1;align=left;" vertex="1" parent="1">
          <mxGeometry x="1460" y="395.42" width="120" height="112.65" as="geometry" />
        </mxCell>
        <mxCell id="_gaNA8L7GJSep_8MpRXc-90" value="" style="rounded=0;whiteSpace=wrap;html=1;" vertex="1" parent="1">
          <mxGeometry x="405" y="160" width="40" height="60" as="geometry" />
        </mxCell>
        <mxCell id="_gaNA8L7GJSep_8MpRXc-91" value="" style="shape=or;whiteSpace=wrap;html=1;" vertex="1" parent="1">
          <mxGeometry x="445" y="160" width="30" height="60" as="geometry" />
        </mxCell>
        <mxCell id="_gaNA8L7GJSep_8MpRXc-92" value="" style="shape=or;whiteSpace=wrap;html=1;direction=west;" vertex="1" parent="1">
          <mxGeometry x="375" y="160" width="30" height="60" as="geometry" />
        </mxCell>
        <mxCell id="_gaNA8L7GJSep_8MpRXc-94" value="" style="ellipse;whiteSpace=wrap;html=1;aspect=fixed;" vertex="1" parent="1">
          <mxGeometry x="382.5" y="182.5" width="15" height="15" as="geometry" />
        </mxCell>
        <mxCell id="_gaNA8L7GJSep_8MpRXc-95" value="" style="ellipse;whiteSpace=wrap;html=1;aspect=fixed;" vertex="1" parent="1">
          <mxGeometry x="452.5" y="182.5" width="15" height="15" as="geometry" />
        </mxCell>
        <mxCell id="_gaNA8L7GJSep_8MpRXc-100" value="" style="shape=sumEllipse;perimeter=ellipsePerimeter;whiteSpace=wrap;html=1;backgroundOutline=1;" vertex="1" parent="1">
          <mxGeometry x="407.5" y="162.5" width="35" height="55" as="geometry" />
        </mxCell>
        <mxCell id="_gaNA8L7GJSep_8MpRXc-101" value="" style="rounded=0;whiteSpace=wrap;html=1;" vertex="1" parent="1">
          <mxGeometry x="405" y="220" width="2.5" height="60" as="geometry" />
        </mxCell>
        <mxCell id="_gaNA8L7GJSep_8MpRXc-102" value="" style="rounded=0;whiteSpace=wrap;html=1;" vertex="1" parent="1">
          <mxGeometry x="442.5" y="220" width="2.5" height="60" as="geometry" />
        </mxCell>
        <mxCell id="_gaNA8L7GJSep_8MpRXc-103" value="10k" style="rounded=0;whiteSpace=wrap;html=1;direction=south;" vertex="1" parent="1">
          <mxGeometry x="432.5" y="280" width="22.5" height="60" as="geometry" />
        </mxCell>
      </root>
    </mxGraphModel>
  </diagram>
</mxfile>
